<svg xmlns="http://www.w3.org/2000/svg" viewBox="0 0 490 488"><defs><style>.a,.c,.d{fill:#fff;}.b{fill:none;}.b,.c{stroke:#da1884;}.b,.c,.d{stroke-linecap:square;stroke-linejoin:round;stroke-width:18px;}.d{stroke:#58bb5f;}</style></defs><title>rearm-icon</title><polyline class="a" points="167 337 137 307 107 276 302 52 481 27 447 197 236 405 167 337"/><polyline class="b" points="167 337 137 307 107 276 302 52 481 27 447 197 236 405 167 337"/><polygon class="a" points="34 204 26 268 133 375 237 479 302 471 34 204"/><polygon class="b" points="34 204 26 268 133 375 237 479 302 471 34 204"/><rect class="c" x="57" y="370" width="91" height="105.82" transform="translate(-272 180) rotate(-45)"/><line class="c" x1="343" y1="163" x2="171" y2="334"/><path class="d" d="M225,110C0,0,0,0,230,50,0,0,0,0,163,30" transform="translate(-3 -16)"/><path class="d" d="M152,170C0,0,0,0,159,116,0,0,0,0,43,50" transform="translate(-3 -16)"/><path class="d" d="M107,216C0,0,0,0,108,152,0,0,0,0,15,123" transform="translate(-3 -16)"/></svg>